<svg width="103" height="30" viewBox="0 0 103 30" fill="none" xmlns="http://www.w3.org/2000/svg">
<path d="M2.808 23.064C1.528 23.064 0.888 22.7227 0.888 22.04V7.224C0.888 6.54133 1.528 6.2 2.808 6.2H3.704C4.984 6.2 5.624 6.54133 5.624 7.224V22.04C5.624 22.7227 4.984 23.064 3.704 23.064H2.808ZM3.256 4.632C1.67733 4.632 0.888 4.29067 0.888 3.608V1.112C0.888 0.429333 1.67733 0.0879993 3.256 0.0879993C4.83467 0.0879993 5.624 0.429333 5.624 1.112V3.608C5.624 4.29067 4.83467 4.632 3.256 4.632Z" fill="#E1E1E6"/>
<path d="M15.8528 29.784C10.7754 29.784 8.23675 28.312 8.23675 25.368C8.23675 24.536 8.48208 23.8 8.97275 23.16C9.48475 22.52 10.2101 22.0187 11.1488 21.656L11.1807 21.528C10.7327 21.3147 10.3914 20.9947 10.1567 20.568C9.92208 20.1413 9.80475 19.6613 9.80475 19.128C9.80475 17.9547 10.4448 16.9947 11.7248 16.248C9.99675 15.3307 9.13275 13.816 9.13275 11.704C9.13275 9.76266 9.76208 8.33333 11.0208 7.416C12.3007 6.47733 13.9648 6.008 16.0128 6.008C16.8448 6.008 17.6661 6.09333 18.4767 6.264H23.6287C23.9701 6.264 24.2154 6.392 24.3647 6.648C24.5141 6.904 24.5888 7.30933 24.5888 7.864V8.408C24.5888 9.41067 24.3328 9.912 23.8208 9.912C23.6074 9.912 23.3301 9.88 22.9888 9.816C22.6688 9.752 22.4341 9.688 22.2848 9.624L22.2208 9.752C22.4128 9.96533 22.5728 10.264 22.7008 10.648C22.8288 11.0107 22.8927 11.3627 22.8927 11.704C22.8927 13.5387 22.2847 14.904 21.0688 15.8C19.8741 16.696 18.3061 17.144 16.3647 17.144C15.4261 17.144 14.8181 17.2293 14.5408 17.4C14.2634 17.5493 14.1248 17.8053 14.1248 18.168C14.1248 18.552 14.3701 18.8187 14.8608 18.968C15.3514 19.1173 16.1834 19.2773 17.3568 19.448C17.7408 19.4907 18.3381 19.576 19.1488 19.704C20.6634 20.0027 21.8688 20.4933 22.7648 21.176C23.6608 21.8373 24.1088 22.8933 24.1088 24.344C24.1088 25.432 23.7674 26.3813 23.0848 27.192C22.4021 28.024 21.4314 28.664 20.1728 29.112C18.9354 29.56 17.4954 29.784 15.8528 29.784ZM16.0128 13.72C16.7168 13.72 17.2927 13.5493 17.7407 13.208C18.1887 12.8453 18.4128 12.3013 18.4128 11.576C18.4128 10.872 18.1887 10.3387 17.7407 9.976C17.2927 9.61333 16.7168 9.432 16.0128 9.432C15.3088 9.432 14.7327 9.61333 14.2847 9.976C13.8368 10.3387 13.6128 10.872 13.6128 11.576C13.6128 12.3013 13.8368 12.8453 14.2847 13.208C14.7327 13.5493 15.3088 13.72 16.0128 13.72ZM16.2048 26.04C17.2927 26.04 18.1141 25.9013 18.6688 25.624C19.2234 25.3467 19.5008 24.9627 19.5008 24.472C19.5008 23.9813 19.1381 23.6187 18.4128 23.384C17.7087 23.1707 16.4288 23 14.5728 22.872C14.0394 23.064 13.6128 23.3093 13.2928 23.608C12.9941 23.928 12.8448 24.2587 12.8448 24.6C12.8448 25.048 13.1114 25.4 13.6448 25.656C14.1994 25.912 15.0528 26.04 16.2048 26.04Z" fill="#E1E1E6"/>
<path d="M27.5935 23.064C26.3135 23.064 25.6735 22.7227 25.6735 22.04V19.096C25.6735 18.4133 26.3135 18.072 27.5935 18.072H28.6175C29.8975 18.072 30.5375 18.4133 30.5375 19.096V22.04C30.5375 22.7227 29.8975 23.064 28.6175 23.064H27.5935Z" fill="#E1E1E6"/>
<path d="M35.1852 23.064C33.9053 23.064 33.2653 22.7227 33.2653 22.04V11.896C33.2653 10.9573 33.2332 10.2427 33.1693 9.752C33.1266 9.24 33.0626 8.67467 32.9772 8.056C32.9132 7.75733 32.8812 7.53333 32.8812 7.384C32.8812 7.04267 33.3079 6.78667 34.1613 6.616C35.0359 6.44533 35.8039 6.36 36.4652 6.36C36.8492 6.36 37.1159 6.50933 37.2653 6.808C37.4146 7.08533 37.5213 7.39467 37.5853 7.736C37.6706 8.07733 37.7239 8.312 37.7453 8.44C38.2573 7.75733 38.9399 7.18133 39.7933 6.712C40.6466 6.24267 41.5533 6.008 42.5133 6.008C44.1133 6.008 45.2972 6.43467 46.0653 7.288C46.8333 8.12 47.2173 9.42133 47.2173 11.192V22.04C47.2173 22.7227 46.5772 23.064 45.2972 23.064H44.4013C43.1213 23.064 42.4813 22.7227 42.4813 22.04V11.896C42.4813 11.2347 42.3319 10.744 42.0332 10.424C41.7346 10.0827 41.2439 9.912 40.5612 9.912C39.9852 9.912 39.4733 10.104 39.0252 10.488C38.5986 10.8507 38.2573 11.2773 38.0013 11.768V22.04C38.0013 22.7227 37.3612 23.064 36.0812 23.064H35.1852Z" fill="#E1E1E6"/>
<path d="M58.7897 23.256C55.9737 23.256 53.8724 22.5093 52.4857 21.016C51.1204 19.5013 50.4378 17.4107 50.4378 14.744C50.4378 11.736 51.1204 9.528 52.4857 8.12C53.8724 6.712 55.7818 6.008 58.2138 6.008C60.5818 6.008 62.3204 6.776 63.4297 8.312C64.5604 9.848 65.1257 11.832 65.1257 14.264C65.1257 14.52 64.9017 14.904 64.4538 15.416C64.0271 15.9067 63.7071 16.152 63.4938 16.152H55.3338C55.4404 17.368 55.8031 18.232 56.4217 18.744C57.0404 19.256 57.9044 19.512 59.0137 19.512C59.6111 19.512 60.1551 19.448 60.6458 19.32C61.1364 19.1707 61.6484 18.9893 62.1818 18.776C62.5231 18.6053 62.7578 18.52 62.8857 18.52C63.0991 18.52 63.3338 18.68 63.5898 19C63.8671 19.2987 64.0911 19.6507 64.2617 20.056C64.4538 20.44 64.5498 20.7387 64.5498 20.952C64.5498 21.4427 64.2191 21.8693 63.5578 22.232C62.8964 22.5733 62.1071 22.8293 61.1898 23C60.2724 23.1707 59.4724 23.256 58.7897 23.256ZM60.5177 12.984C60.5177 12.0027 60.3257 11.224 59.9417 10.648C59.5578 10.0507 58.9818 9.752 58.2138 9.752C56.6351 9.752 55.6751 10.8293 55.3338 12.984H60.5177Z" fill="#E1E1E6"/>
<path d="M72.4632 23.064C71.4179 23.064 70.8312 22.84 70.7032 22.392L66.6712 7.512C66.6286 7.384 66.6072 7.224 66.6072 7.032C66.6072 6.47733 67.2686 6.2 68.5912 6.2C69.4446 6.2 70.0632 6.25333 70.4473 6.36C70.8313 6.46667 71.0552 6.63733 71.1192 6.872L73.0072 14.744C73.2846 15.8533 73.4446 16.7387 73.4873 17.4H73.6152C73.6793 16.824 73.8713 15.9067 74.1913 14.648L76.0793 6.872C76.2073 6.424 76.7939 6.2 77.8392 6.2H78.6073C79.0766 6.2 79.4713 6.264 79.7913 6.392C80.1326 6.49867 80.3246 6.65867 80.3672 6.872L82.2872 14.808C82.5859 16.088 82.7566 16.9947 82.7993 17.528H82.8633C83.0339 16.4187 83.2152 15.48 83.4072 14.712L85.3273 6.872C85.4339 6.424 86.0633 6.2 87.2153 6.2C88.5379 6.2 89.1992 6.47733 89.1992 7.032C89.1992 7.224 89.1779 7.384 89.1353 7.512L85.3593 22.392C85.3166 22.6053 85.1246 22.776 84.7832 22.904C84.4632 23.0107 84.0686 23.064 83.5993 23.064H82.0312C80.9859 23.064 80.3992 22.84 80.2712 22.392L78.4792 15.352C78.2659 14.456 78.1166 13.56 78.0312 12.664H77.9033C77.8606 13.4533 77.7219 14.36 77.4873 15.384L75.7913 22.392C75.7486 22.6053 75.5566 22.776 75.2152 22.904C74.8952 23.0107 74.5006 23.064 74.0312 23.064H72.4632Z" fill="#E1E1E6"/>
<path d="M96.1455 23.256C94.8228 23.256 93.6068 23.0533 92.4975 22.648C91.3882 22.2427 90.8335 21.72 90.8335 21.08C90.8335 20.6533 91.0362 20.1413 91.4415 19.544C91.8468 18.9253 92.2095 18.616 92.5295 18.616C92.7002 18.616 92.9348 18.7013 93.2335 18.872C93.6815 19.064 94.0868 19.224 94.4495 19.352C94.8335 19.4587 95.2708 19.512 95.7615 19.512C96.4015 19.512 96.8815 19.3947 97.2015 19.16C97.5428 18.9253 97.7135 18.5947 97.7135 18.168C97.7135 17.7413 97.5322 17.4107 97.1695 17.176C96.8068 16.9413 96.1242 16.6107 95.1215 16.184C94.3748 15.864 93.7348 15.544 93.2015 15.224C92.6682 14.8827 92.1988 14.392 91.7935 13.752C91.4095 13.0907 91.2175 12.2587 91.2175 11.256C91.2175 9.61333 91.7402 8.33333 92.7855 7.416C93.8308 6.47733 95.2495 6.008 97.0415 6.008C98.1722 6.008 99.2495 6.168 100.273 6.488C101.319 6.808 101.841 7.26667 101.841 7.864C101.841 8.26933 101.682 8.792 101.362 9.432C101.042 10.072 100.743 10.392 100.465 10.392C100.38 10.392 100.06 10.2853 99.5055 10.072C98.9508 9.83733 98.3215 9.72 97.6175 9.72C96.4868 9.72 95.9215 10.1147 95.9215 10.904C95.9215 11.3733 96.1135 11.736 96.4975 11.992C96.8815 12.2267 97.5748 12.5253 98.5775 12.888C99.6868 13.2933 100.604 13.8587 101.329 14.584C102.055 15.288 102.418 16.3547 102.418 17.784C102.418 19.448 101.863 20.7813 100.754 21.784C99.6442 22.7653 98.1082 23.256 96.1455 23.256Z" fill="#E1E1E6"/>
</svg>
